HIERARCHY
ROOT newVegas:Hips
{
	OFFSET 0.000000 96.479958 0.000000
	CHANNELS 6 Xposition Yposition Zposition Xrotation Yrotation Zrotation
	JOINT newVegas:Pelvis
	{
		OFFSET 0.000000 0.000000 0.000000
		CHANNELS 3 Xrotation Yrotation Zrotation
		JOINT newVegas:LeftUpLeg
		{
			OFFSET 18.735201 -5.666702 -4.541200
			CHANNELS 3 Xrotation Yrotation Zrotation
			JOINT newVegas:LeftLeg
			{
				OFFSET -0.021200 -31.938179 0.493100
				CHANNELS 3 Xrotation Yrotation Zrotation
				JOINT newVegas:LeftFoot
				{
					OFFSET 0.021200 -31.938179 -4.336299
					CHANNELS 3 Xrotation Yrotation Zrotation
					JOINT newVegas:LeftToeBase
					{
						OFFSET 0.943001 -26.722000 15.023500
						CHANNELS 3 Xrotation Yrotation Zrotation
						End Site
						{
							OFFSET 0.000000 30.670183 0.000000
						}
					}
				}
				JOINT newVegas:Left_PantLeg
				{
					OFFSET 0.663870 -9.044666 -1.108900
					CHANNELS 3 Xrotation Yrotation Zrotation
					End Site
					{
						OFFSET 1.415995 20.635357 0.000000
					}
				}
			}
		}
		JOINT newVegas:RightUpLeg
		{
			OFFSET -18.735201 -5.666702 -4.541200
			CHANNELS 3 Xrotation Yrotation Zrotation
			JOINT newVegas:RightLeg
			{
				OFFSET 0.018946 -31.938133 0.493100
				CHANNELS 3 Xrotation Yrotation Zrotation
				JOINT newVegas:RightFoot
				{
					OFFSET -0.018946 -31.938126 -4.336299
					CHANNELS 3 Xrotation Yrotation Zrotation
					JOINT newVegas:RightToeBase
					{
						OFFSET -0.943001 -26.722004 15.023500
						CHANNELS 3 Xrotation Yrotation Zrotation
						End Site
						{
							OFFSET 0.000000 30.670187 0.000000
						}
					}
				}
				JOINT newVegas:Right_PantLeg
				{
					OFFSET -0.661674 -9.044716 -1.108900
					CHANNELS 3 Xrotation Yrotation Zrotation
					End Site
					{
						OFFSET -1.415958 20.635269 0.000000
					}
				}
			}
		}
	}
	JOINT newVegas:Spine
	{
		OFFSET 0.000000 10.199997 -0.299500
		CHANNELS 3 Xrotation Yrotation Zrotation
		JOINT newVegas:Spine1
		{
			OFFSET 0.000000 11.900002 -1.516600
			CHANNELS 3 Xrotation Yrotation Zrotation
			JOINT newVegas:Spine2
			{
				OFFSET 0.000000 13.600006 -2.842500
				CHANNELS 3 Xrotation Yrotation Zrotation
				JOINT newVegas:Neck
				{
					OFFSET 0.000000 9.624100 -2.890100
					CHANNELS 3 Xrotation Yrotation Zrotation
					JOINT newVegas:Head
					{
						OFFSET 0.000000 14.068802 -1.351900
						CHANNELS 3 Xrotation Yrotation Zrotation
						JOINT newVegas:Hair_Back
						{
							OFFSET 0.000000 3.231903 -17.524799
							CHANNELS 3 Xrotation Yrotation Zrotation
							End Site
							{
								OFFSET 0.000000 19.849884 0.000000
							}
						}
						JOINT newVegas:Hair_Front
						{
							OFFSET 0.000000 31.260406 4.573800
							CHANNELS 3 Xrotation Yrotation Zrotation
							JOINT newVegas:Hair_Front1
							{
								OFFSET 0.000000 2.284103 11.993300
								CHANNELS 3 Xrotation Yrotation Zrotation
								JOINT newVegas:Hair_Front2
								{
									OFFSET 0.000000 2.284103 11.993300
									CHANNELS 3 Xrotation Yrotation Zrotation
									End Site
									{
										OFFSET 0.000000 12.208862 0.000000
									}
								}
							}
						}
						JOINT newVegas:Jowel
						{
							OFFSET 0.000000 -7.458206 6.864100
							CHANNELS 3 Xrotation Yrotation Zrotation
							End Site
							{
								OFFSET 0.000000 19.849884 0.000000
							}
						}
					}
				}
				JOINT newVegas:LeftShoulder
				{
					OFFSET 15.263000 10.923401 -0.547700
					CHANNELS 3 Xrotation Yrotation Zrotation
					JOINT newVegas:LeftArm
					{
						OFFSET 25.438599 -2.830597 -13.032500
						CHANNELS 3 Xrotation Yrotation Zrotation
						JOINT newVegas:LeftForeArm
						{
							OFFSET 29.960503 0.000000 0.000000
							CHANNELS 3 Xrotation Yrotation Zrotation
							JOINT newVegas:LeftHand
							{
								OFFSET 27.849251 0.000000 0.000000
								CHANNELS 3 Xrotation Yrotation Zrotation
								JOINT newVegas:LeftHandThumb1
								{
									OFFSET 4.487587 -3.305161 6.305391
									CHANNELS 3 Xrotation Yrotation Zrotation
									JOINT newVegas:LeftHandThumb2
									{
										OFFSET 5.480453 -3.164139 3.164143
										CHANNELS 3 Xrotation Yrotation Zrotation
										JOINT newVegas:LeftHandThumb3
										{
											OFFSET 5.159721 -2.978973 2.978967
											CHANNELS 3 Xrotation Yrotation Zrotation
											End Site
											{
												OFFSET 2.494507 5.926697 1.738678
											}
										}
									}
								}
								JOINT newVegas:LeftHandIndex1
								{
									OFFSET 18.578728 -0.527832 5.208049
									CHANNELS 3 Xrotation Yrotation Zrotation
									JOINT newVegas:LeftHandIndex2
									{
										OFFSET 3.192009 0.000000 0.000000
										CHANNELS 3 Xrotation Yrotation Zrotation
										JOINT newVegas:LeftHandIndex3
										{
											OFFSET 3.835129 0.000000 0.000000
											CHANNELS 3 Xrotation Yrotation Zrotation
											End Site
											{
												OFFSET -0.034599 3.816971 0.371180
											}
										}
									}
								}
								JOINT newVegas:LeftHandMiddle1
								{
									OFFSET 18.476105 0.000000 0.000000
									CHANNELS 3 Xrotation Yrotation Zrotation
									JOINT newVegas:LeftHandMiddle2
									{
										OFFSET 3.324875 0.000000 0.000000
										CHANNELS 3 Xrotation Yrotation Zrotation
										JOINT newVegas:LeftHandMiddle3
										{
											OFFSET 4.596550 0.000000 0.000000
											CHANNELS 3 Xrotation Yrotation Zrotation
											End Site
											{
												OFFSET 0.057701 4.578827 0.399218
											}
										}
									}
								}
								JOINT newVegas:LeftHandRing1
								{
									OFFSET 17.732719 0.121887 -4.201567
									CHANNELS 3 Xrotation Yrotation Zrotation
									JOINT newVegas:LeftHandRing2
									{
										OFFSET 2.733170 0.000000 0.000000
										CHANNELS 3 Xrotation Yrotation Zrotation
										JOINT newVegas:LeftHandRing3
										{
											OFFSET 3.178268 0.000000 0.000000
											CHANNELS 3 Xrotation Yrotation Zrotation
											End Site
											{
												OFFSET 0.119102 3.170624 0.185394
											}
										}
									}
								}
								JOINT newVegas:LeftHandPinky1
								{
									OFFSET 15.989624 -0.606689 -7.535461
									CHANNELS 3 Xrotation Yrotation Zrotation
									JOINT newVegas:LeftHandPinky2
									{
										OFFSET 2.538986 0.000000 0.000000
										CHANNELS 3 Xrotation Yrotation Zrotation
										JOINT newVegas:LeftHandPinky3
										{
											OFFSET 2.593102 0.000000 0.000000
											CHANNELS 3 Xrotation Yrotation Zrotation
											End Site
											{
												OFFSET -0.150902 2.584198 0.152708
											}
										}
									}
								}
							}
							JOINT newVegas:Left_Sleeve
							{
								OFFSET 0.267448 -0.649796 0.577675
								CHANNELS 3 Xrotation Yrotation Zrotation
								End Site
								{
									OFFSET 0.000000 15.991241 0.000000
								}
							}
							JOINT newVegas:Left_CapeC
							{
								OFFSET 15.715958 -8.608795 -6.935905
								CHANNELS 3 Xrotation Yrotation Zrotation
								JOINT newVegas:Left_CapeC1
								{
									OFFSET 0.000000 -8.688499 0.000000
									CHANNELS 3 Xrotation Yrotation Zrotation
									End Site
									{
										OFFSET 0.000000 8.688499 0.000000
									}
								}
							}
						}
						JOINT newVegas:Left_CapeB
						{
							OFFSET 26.118385 -8.608795 -7.079235
							CHANNELS 3 Xrotation Yrotation Zrotation
							JOINT newVegas:Left_CapeB1
							{
								OFFSET 0.000000 -8.688499 0.000000
								CHANNELS 3 Xrotation Yrotation Zrotation
								End Site
								{
									OFFSET 0.000000 8.688499 0.000000
								}
							}
						}
						JOINT newVegas:Left_CapeA
						{
							OFFSET 5.115639 -8.608795 -10.395809
							CHANNELS 3 Xrotation Yrotation Zrotation
							JOINT newVegas:Left_CapeA1
							{
								OFFSET 0.000000 -8.688499 0.000000
								CHANNELS 3 Xrotation Yrotation Zrotation
								End Site
								{
									OFFSET 0.000000 8.688499 0.000000
								}
							}
						}
					}
				}
				JOINT newVegas:RightShoulder
				{
					OFFSET -15.263000 10.923401 -0.547700
					CHANNELS 3 Xrotation Yrotation Zrotation
					JOINT newVegas:RightArm
					{
						OFFSET -25.438599 -2.830597 -13.032500
						CHANNELS 3 Xrotation Yrotation Zrotation
						JOINT newVegas:RightForeArm
						{
							OFFSET -29.960503 0.000000 0.000000
							CHANNELS 3 Xrotation Yrotation Zrotation
							JOINT newVegas:RightHand
							{
								OFFSET -27.849251 0.000000 0.000000
								CHANNELS 3 Xrotation Yrotation Zrotation
								JOINT newVegas:RightHandThumb1
								{
									OFFSET -4.487587 -3.305161 6.305391
									CHANNELS 3 Xrotation Yrotation Zrotation
									JOINT newVegas:RightHandThumb2
									{
										OFFSET -5.480453 -3.164139 3.164143
										CHANNELS 3 Xrotation Yrotation Zrotation
										JOINT newVegas:RightHandThumb3
										{
											OFFSET -5.159721 -2.978973 2.978967
											CHANNELS 3 Xrotation Yrotation Zrotation
											End Site
											{
												OFFSET -2.494507 5.926697 1.738678
											}
										}
									}
								}
								JOINT newVegas:RightHandIndex1
								{
									OFFSET -18.578728 -0.527832 5.208049
									CHANNELS 3 Xrotation Yrotation Zrotation
									JOINT newVegas:RightHandIndex2
									{
										OFFSET -3.192009 0.000000 0.000000
										CHANNELS 3 Xrotation Yrotation Zrotation
										JOINT newVegas:RightHandIndex3
										{
											OFFSET -3.835129 0.000000 0.000000
											CHANNELS 3 Xrotation Yrotation Zrotation
											End Site
											{
												OFFSET 0.034599 3.816971 0.371180
											}
										}
									}
								}
								JOINT newVegas:RightHandMiddle1
								{
									OFFSET -18.476105 0.000000 0.000000
									CHANNELS 3 Xrotation Yrotation Zrotation
									JOINT newVegas:RightHandMiddle2
									{
										OFFSET -3.324875 0.000000 0.000000
										CHANNELS 3 Xrotation Yrotation Zrotation
										JOINT newVegas:RightHandMiddle3
										{
											OFFSET -4.596550 0.000000 0.000000
											CHANNELS 3 Xrotation Yrotation Zrotation
											End Site
											{
												OFFSET -0.057701 4.578827 0.399218
											}
										}
									}
								}
								JOINT newVegas:RightHandRing1
								{
									OFFSET -17.732719 0.121887 -4.201567
									CHANNELS 3 Xrotation Yrotation Zrotation
									JOINT newVegas:RightHandRing2
									{
										OFFSET -2.733170 0.000000 0.000000
										CHANNELS 3 Xrotation Yrotation Zrotation
										JOINT newVegas:RightHandRing3
										{
											OFFSET -3.178268 0.000000 0.000000
											CHANNELS 3 Xrotation Yrotation Zrotation
											End Site
											{
												OFFSET -0.119102 3.170624 0.185394
											}
										}
									}
								}
								JOINT newVegas:RightHandPinky1
								{
									OFFSET -15.989624 -0.606689 -7.535461
									CHANNELS 3 Xrotation Yrotation Zrotation
									JOINT newVegas:RightHandPinky2
									{
										OFFSET -2.538986 0.000000 0.000000
										CHANNELS 3 Xrotation Yrotation Zrotation
										JOINT newVegas:RightHandPinky3
										{
											OFFSET -2.593102 0.000000 0.000000
											CHANNELS 3 Xrotation Yrotation Zrotation
											End Site
											{
												OFFSET 0.150902 2.584198 0.152708
											}
										}
									}
								}
							}
							JOINT newVegas:Right_CapeC
							{
								OFFSET -15.715958 -8.608795 -6.935905
								CHANNELS 3 Xrotation Yrotation Zrotation
								JOINT newVegas:Right_CapeC1
								{
									OFFSET 0.000000 -8.688499 0.000000
									CHANNELS 3 Xrotation Yrotation Zrotation
									End Site
									{
										OFFSET 0.000000 8.688499 0.000000
									}
								}
							}
							JOINT newVegas:Right_Sleeve
							{
								OFFSET -0.267448 -0.649994 0.577675
								CHANNELS 3 Xrotation Yrotation Zrotation
								End Site
								{
									OFFSET 0.000000 15.991302 0.000000
								}
							}
						}
						JOINT newVegas:Right_CapeA
						{
							OFFSET -5.115540 -8.608795 -10.395824
							CHANNELS 3 Xrotation Yrotation Zrotation
							JOINT newVegas:Right_CapeA1
							{
								OFFSET 0.000000 -8.688499 0.000000
								CHANNELS 3 Xrotation Yrotation Zrotation
								End Site
								{
									OFFSET 0.000000 8.688499 0.000000
								}
							}
						}
						JOINT newVegas:Right_CapeB
						{
							OFFSET -26.118187 -8.608795 -7.079266
							CHANNELS 3 Xrotation Yrotation Zrotation
							JOINT newVegas:Right_CapeB1
							{
								OFFSET 0.000000 -8.688499 0.000000
								CHANNELS 3 Xrotation Yrotation Zrotation
								End Site
								{
									OFFSET 0.000000 8.688499 0.000000
								}
							}
						}
					}
				}
				JOINT newVegas:Left_Collar
				{
					OFFSET 18.625099 8.655502 8.828100
					CHANNELS 3 Xrotation Yrotation Zrotation
					JOINT newVegas:Left_Collar1
					{
						OFFSET 14.783401 10.540405 -1.259500
						CHANNELS 3 Xrotation Yrotation Zrotation
						End Site
						{
							OFFSET 0.000000 18.199875 0.000000
						}
					}
				}
				JOINT newVegas:Collar_Back
				{
					OFFSET 0.000000 15.630707 -20.132601
					CHANNELS 3 Xrotation Yrotation Zrotation
					End Site
					{
						OFFSET 0.000000 22.523010 0.000000
					}
				}
				JOINT newVegas:Left_Peck
				{
					OFFSET 17.239599 -5.132599 25.482599
					CHANNELS 3 Xrotation Yrotation Zrotation
					End Site
					{
						OFFSET 0.000000 22.523010 0.000000
					}
				}
				JOINT newVegas:Right_Peck
				{
					OFFSET -17.239599 -5.132202 25.482599
					CHANNELS 3 Xrotation Yrotation Zrotation
					End Site
					{
						OFFSET 0.000000 22.523010 0.000000
					}
				}
				JOINT newVegas:Right_Collar
				{
					OFFSET -18.625099 8.655792 8.828100
					CHANNELS 3 Xrotation Yrotation Zrotation
					JOINT newVegas:Right_Collar1
					{
						OFFSET -14.783401 10.539993 -1.259500
						CHANNELS 3 Xrotation Yrotation Zrotation
						End Site
						{
							OFFSET 0.000000 18.199631 0.000000
						}
					}
				}
			}
		}
		JOINT newVegas:Belly
		{
			OFFSET 0.000000 -6.540398 9.014299
			CHANNELS 3 Xrotation Yrotation Zrotation
			End Site
			{
				OFFSET 0.000000 11.566666 0.000000
			}
		}
	}
	JOINT newVegas:ElvisFacialAnim_Joint
	{
		OFFSET 1.000000 -95.330101 -8.825800
		CHANNELS 3 Xrotation Yrotation Zrotation
		End Site
		{
			OFFSET 0.000000 35.315800 0.000000
		}
	}
}
MOTION
Frames: 4
Frame Time: 0.016667
-2.502603 80.375252 2.717977 -5.066611 -42.370310 0.336365 0.000000 -0.000001 -0.000000 -36.917063 3.270016 21.340574 62.505875 -8.150104 4.188497 -22.902473 -6.714141 -18.587424 0.000000 -0.000003 0.000000 0.000000 -0.000001 -0.000002 -21.072109 -9.197360 -32.290566 63.676570 -7.115153 -7.523105 -31.485219 -9.751354 26.477527 0.000000 0.000001 -0.000001 -0.000001 0.000001 0.000000 9.462087 7.035265 -1.694401 2.187715 0.989894 -0.914786 2.202831 0.982770 -0.893560 2.650043 3.452590 -0.064172 2.650039 3.452583 -0.064174 0.000001 0.000000 -0.000000 2.650047 3.452598 -0.064174 2.650112 3.452584 -0.064175 -0.000001 0.000000 -0.000000 0.000001 0.000000 -0.000000 1.117177 3.546351 -8.633310 -53.487017 4.935509 -51.502983 0.000645 -106.358046 0.000635 1.988598 -7.706149 -15.869232 -6.141219 -11.690799 -6.761692 9.914096 42.595512 3.409871 -0.000000 0.000001 -0.000003 0.255326 3.378224 -45.814358 5.654085 5.847759 -88.067462 -0.000002 -0.000000 -0.000000 -0.461474 3.841586 -39.722690 6.450744 5.820335 -95.892851 0.000001 -0.000001 -0.000001 0.469728 4.966818 -39.799451 8.181042 5.368588 -113.503018 0.000001 -0.000001 0.000000 -3.762419 9.063710 -45.253821 5.342495 5.828972 -85.005317 0.000004 0.000000 -0.000004 -0.000002 -0.000001 0.000000 -0.000002 -0.000001 0.000000 -0.000002 -0.000000 0.000001 0.000000 -0.000001 0.000000 0.000000 -0.000002 0.000000 0.000000 -0.000001 0.000000 -0.000001 -0.000003 -0.000000 3.036125 13.027199 -5.371406 -48.713722 27.172832 83.457071 0.000552 105.988280 -0.000542 -8.345403 17.548095 8.775694 -7.341091 13.749666 7.412311 9.855748 -44.489107 -3.903274 0.000002 -0.000004 0.000002 -0.124371 -2.384792 45.108871 4.500600 -4.654543 88.071184 0.000001 0.000001 -0.000001 -0.761622 -2.932899 39.031061 5.133876 -4.632740 95.881656 -0.000000 0.000002 -0.000002 0.154768 -4.068798 39.122664 6.509713 -4.273581 113.462843 -0.000001 -0.000001 0.000000 -4.198869 -8.025529 44.637776 4.252897 -4.639613 85.014846 0.000003 0.000003 -0.000001 0.000001 -0.000003 0.000001 0.000001 -0.000004 -0.000001 0.000001 -0.000004 -0.000001 0.000001 0.000001 -0.000001 0.000001 0.000002 0.000001 0.000001 0.000001 -0.000001 0.000001 0.000002 0.000000 0.000000 0.000002 -0.000000 0.000000 0.000002 -0.000000 0.000000 0.000002 -0.000000 0.000000 0.000002 -0.000000 0.000000 0.000002 -0.000000 0.000000 0.000002 -0.000000 0.000000 0.000002 -0.000000 -0.000001 -0.000003 0.000000 0.000000 -0.000001 -0.000000 
-2.502391 80.392616 2.741995 -4.995946 -42.359290 0.289217 0.000000 -0.000000 -0.000000 -36.961849 3.227742 21.555444 62.506210 -7.985832 4.007288 -22.950443 -6.904428 -18.584800 0.000000 0.000000 -0.000000 0.000003 0.000002 -0.000000 -21.160923 -9.438533 -32.334498 63.554917 -6.874663 -7.491897 -31.458461 -9.706498 26.312346 -0.000000 0.000001 -0.000000 0.000000 0.000001 -0.000003 9.444652 7.080973 -1.710766 2.175732 1.007919 -0.914785 2.190586 1.000769 -0.893559 2.633548 3.458740 -0.077762 2.633561 3.458736 -0.077764 -0.000000 -0.000001 0.000001 2.633622 3.458715 -0.077764 2.633553 3.458732 -0.077763 -0.000001 -0.000001 -0.000000 -0.000000 -0.000001 0.000001 1.060109 3.401049 -8.204986 -53.252625 4.575403 -50.958921 0.000107 -106.452296 0.000098 2.080125 -7.637608 -15.690626 -6.141217 -11.690799 -6.761700 9.914090 42.595515 3.409865 0.000001 0.000003 -0.000002 0.255325 3.378225 -45.814365 5.654086 5.847755 -88.067462 -0.000002 0.000001 -0.000000 -0.461473 3.841590 -39.722697 6.450744 5.820338 -95.892857 0.000002 0.000001 -0.000000 0.469730 4.966818 -39.799451 8.181043 5.368591 -113.503018 -0.000001 -0.000001 -0.000001 -3.762419 9.063708 -45.253828 5.342504 5.828974 -85.005311 0.000000 0.000000 0.000001 0.000001 0.000001 -0.000000 0.000001 0.000001 -0.000000 0.000001 0.000001 0.000000 0.000001 0.000003 -0.000000 0.000001 0.000003 -0.000000 0.000001 0.000003 -0.000000 -0.000000 0.000003 0.000001 2.992700 12.851422 -5.316450 -49.165658 27.692727 83.232576 -0.000174 105.878041 0.000166 -8.322229 17.530734 8.373452 -7.341090 13.749666 7.412315 9.855742 -44.489107 -3.903262 0.000001 0.000001 -0.000000 -0.124369 -2.384795 45.108874 4.500599 -4.654542 88.071184 -0.000000 -0.000001 -0.000000 -0.761621 -2.932901 39.031061 5.133880 -4.632739 95.881656 0.000002 -0.000002 0.000001 0.154770 -4.068801 39.122675 6.509715 -4.273586 113.462850 0.000001 -0.000001 0.000000 -4.198869 -8.025535 44.637772 4.252895 -4.639608 85.014852 -0.000001 -0.000002 0.000001 -0.000001 0.000001 -0.000001 -0.000001 -0.000002 -0.000001 -0.000001 0.000001 -0.000003 0.000001 0.000003 -0.000001 0.000001 0.000003 0.000001 0.000001 0.000003 -0.000001 0.000001 0.000003 0.000000 0.000000 -0.000002 0.000001 0.000000 -0.000002 0.000001 0.000000 -0.000002 0.000001 0.000000 -0.000002 0.000001 0.000000 -0.000002 0.000001 0.000000 -0.000002 0.000001 0.000000 -0.000002 0.000001 0.000000 -0.000002 0.000000 0.000000 -0.000000 -0.000000 
-2.510795 80.422440 2.780405 -4.921077 -42.380026 0.247284 0.000000 0.000000 -0.000000 -37.002755 3.226904 21.782392 62.500582 -8.078398 3.829510 -22.966487 -6.971969 -18.470648 0.000000 0.000001 0.000000 -0.000001 0.000003 -0.000002 -21.198100 -9.598198 -32.378833 63.414133 -6.650640 -7.366733 -31.427548 -9.648245 26.104261 0.000000 0.000000 0.000000 0.000001 -0.000000 0.000002 9.419279 7.097655 -1.732404 2.160458 1.014517 -0.917778 2.175226 1.007283 -0.896828 2.610275 3.469266 -0.093782 2.610265 3.469249 -0.093777 0.000001 -0.000002 0.000000 2.610286 3.469275 -0.093782 2.610338 3.469250 -0.093782 -0.000000 -0.000001 0.000000 0.000001 -0.000002 -0.000000 1.001849 3.254860 -7.754998 -53.008948 4.373914 -50.549287 0.000106 -106.685622 0.000110 2.320291 -7.487225 -15.637255 -6.141217 -11.690798 -6.761695 9.914095 42.595512 3.409867 0.000003 0.000001 -0.000001 0.255323 3.378223 -45.814361 5.654085 5.847759 -88.067462 0.000000 -0.000001 0.000001 -0.461473 3.841585 -39.722693 6.450741 5.820336 -95.892857 0.000001 -0.000000 -0.000000 0.469730 4.966819 -39.799451 8.181041 5.368589 -113.503018 -0.000001 0.000003 0.000001 -3.762419 9.063710 -45.253825 5.342501 5.828973 -85.005317 -0.000001 0.000002 -0.000001 -0.000000 0.000000 -0.000001 -0.000000 0.000000 -0.000001 -0.000000 0.000000 -0.000001 0.000000 0.000001 0.000001 0.000000 0.000000 0.000002 0.000000 0.000001 0.000001 0.000000 -0.000000 0.000001 2.949119 12.677378 -5.252450 -49.612694 28.281049 83.025860 0.000218 105.788681 -0.000230 -8.265623 17.517738 7.916565 -7.341091 13.749670 7.412310 9.855739 -44.489107 -3.903266 -0.000001 0.000003 -0.000000 -0.124371 -2.384791 45.108874 4.500597 -4.654545 88.071184 0.000001 0.000000 -0.000002 -0.761623 -2.932900 39.031058 5.133881 -4.632741 95.881656 0.000001 -0.000002 0.000001 0.154768 -4.068799 39.122668 6.509714 -4.273588 113.462850 0.000001 0.000001 -0.000000 -4.198872 -8.025531 44.637776 4.252898 -4.639613 85.014846 0.000002 -0.000004 0.000001 -0.000000 0.000006 0.000000 -0.000000 0.000004 -0.000002 -0.000000 0.000006 0.000000 -0.000001 -0.000001 -0.000002 -0.000001 0.000000 -0.000000 -0.000001 -0.000001 -0.000002 -0.000001 -0.000000 -0.000001 0.000001 0.000000 -0.000000 0.000001 0.000000 -0.000000 0.000001 0.000000 -0.000000 0.000001 0.000000 -0.000000 0.000001 0.000000 -0.000000 0.000001 0.000000 -0.000000 0.000001 0.000000 -0.000000 -0.000000 0.000001 -0.000000 0.000000 0.000000 -0.000000 
-2.522060 80.463264 2.836332 -4.839196 -42.449762 0.217954 -0.000000 0.000001 -0.000000 -37.001266 3.289898 22.010141 62.478527 -8.281504 3.649543 -22.999842 -6.921417 -18.290133 -0.000000 -0.000001 -0.000000 -0.000000 0.000000 0.000002 -21.194560 -9.653848 -32.427884 63.259491 -6.337434 -7.150207 -31.378528 -9.662808 25.831668 -0.000000 0.000000 0.000000 -0.000002 0.000000 -0.000001 9.384243 7.090092 -1.762519 2.140906 1.011708 -0.925597 2.155735 1.004236 -0.904948 2.579335 3.484887 -0.111582 2.579330 3.484904 -0.111590 0.000002 0.000001 -0.000000 2.579407 3.484895 -0.111587 2.579409 3.484910 -0.111590 -0.000001 -0.000000 -0.000001 0.000002 0.000001 0.000000 0.942413 3.109347 -7.280550 -52.751815 4.313177 -50.243408 0.000468 -107.038831 0.000456 2.688491 -7.265130 -15.676425 -6.141218 -11.690799 -6.761693 9.914100 42.595519 3.409870 0.000001 -0.000003 -0.000001 0.255325 3.378224 -45.814361 5.654083 5.847761 -88.067462 -0.000001 -0.000002 -0.000000 -0.461471 3.841588 -39.722693 6.450744 5.820338 -95.892851 -0.000001 0.000000 -0.000000 0.469732 4.966822 -39.799451 8.181046 5.368587 -113.503018 -0.000001 0.000003 0.000000 -3.762421 9.063707 -45.253818 5.342498 5.828974 -85.005311 -0.000001 -0.000005 0.000000 0.000001 -0.000001 -0.000000 0.000001 -0.000001 -0.000000 0.000001 -0.000000 0.000000 -0.000002 -0.000002 0.000001 -0.000002 -0.000003 0.000000 -0.000002 -0.000002 0.000001 -0.000002 -0.000003 0.000001 2.906329 12.509034 -5.180292 -50.050646 28.941393 82.820818 0.001120 105.714273 -0.001101 -8.193995 17.536248 7.412587 -7.341092 13.749668 7.412308 9.855744 -44.489107 -3.903267 0.000003 0.000000 0.000001 -0.124371 -2.384795 45.108874 4.500599 -4.654545 88.071184 -0.000000 -0.000000 -0.000002 -0.761622 -2.932898 39.031061 5.133879 -4.632742 95.881656 -0.000001 -0.000002 -0.000001 0.154769 -4.068798 39.122668 6.509713 -4.273586 113.462843 -0.000000 -0.000003 -0.000000 -4.198870 -8.025529 44.637772 4.252895 -4.639614 85.014852 0.000000 -0.000000 0.000002 0.000000 0.000005 -0.000001 0.000000 -0.000002 -0.000002 0.000000 0.000005 -0.000001 -0.000001 0.000007 -0.000001 -0.000001 0.000008 -0.000001 -0.000001 0.000007 -0.000001 -0.000001 0.000008 -0.000002 0.000000 -0.000003 0.000000 0.000000 -0.000003 0.000000 0.000000 -0.000003 0.000000 0.000000 -0.000003 0.000000 0.000000 -0.000003 0.000000 0.000000 -0.000003 0.000000 0.000000 -0.000003 0.000000 0.000000 0.000001 -0.000000 -0.000000 0.000001 -0.000000 
